
        <svg xmlns="http://www.w3.org/2000/svg" xmlns:xlink="http://www.w3.org/1999/xlink" version="1.1" width="3171.4285714285716" height="2079.9818939330735" viewBox="0 0 3171.4285714285716 2079.9818939330735">
			
			<g transform="scale(8.571428571428571) translate(10, 10)">
				<defs id="SvgjsDefs2038"/><g id="SvgjsG2039" featureKey="symbolFeature-0" transform="matrix(2.333333155314141,0,0,2.333333155314141,59,-72.4313273800155)" fill="#fff"><path xmlns="http://www.w3.org/2000/svg" d="M23.545,51.412c6.389-0.23,12.777-0.461,19.166-0.69c-1.191-1.97-1.489-3.692-3.767-3.989  c-3.408-0.443-6.816-0.888-10.225-1.332c-6.611-0.861-13.224-1.723-19.836-2.584C9.476,43.773,18.728,51.585,23.545,51.412z"/><path xmlns="http://www.w3.org/2000/svg" d="M0,31.042c2.07,3.421,12.547,10.877,15.536,11.261c8.17,1.052,16.339,2.103,24.509,3.153  c-1.6-2.644-1.971-4.408-4.861-5.167c-4.198-1.104-8.397-2.208-12.596-3.311C15.058,35,7.529,33.021,0,31.042z"/><path xmlns="http://www.w3.org/2000/svg" d="M29.752,57.642c4.909-1.047,9.818-2.094,14.729-3.141c-0.956-1.577-0.959-2.526-2.747-2.446  c-2.903,0.129-5.806,0.259-8.708,0.388c-5.348,0.238-10.695,0.478-16.042,0.716C17.584,53.803,25.901,58.462,29.752,57.642z"/><path xmlns="http://www.w3.org/2000/svg" d="M41.337,68.959c2.699-1.754,3.424-3.641,4.959-6.51c1.722-3.217,0.593-3.697-1.33-6.881  c-0.196-0.324-2.754,0.109-3.042,0.427c-0.352,0.386-0.117,2.571-0.139,3.062C41.636,62.357,41.486,65.658,41.337,68.959z"/><path xmlns="http://www.w3.org/2000/svg" d="M40.709,56.34c-1.789,0.382-4.057,0.091-4.513,1.994c-0.647,2.704-1.295,5.409-1.942,8.113  C38.613,65.406,40.558,60.175,40.709,56.34z"/><path xmlns="http://www.w3.org/2000/svg" d="M35.201,57.601c-4.313,0.921-4.223,2.174-6.072,6.214C32.062,63.536,34.798,60.345,35.201,57.601z"/><path xmlns="http://www.w3.org/2000/svg" d="M91.116,42.816c-6.612,0.861-13.225,1.723-19.837,2.584c-3.408,0.444-6.816,0.889-10.225,1.332  c-2.276,0.297-2.575,2.02-3.766,3.989c6.389,0.229,12.777,0.46,19.166,0.69C81.271,51.585,90.523,43.773,91.116,42.816z"/><path xmlns="http://www.w3.org/2000/svg" d="M77.413,36.978c-4.199,1.104-8.397,2.208-12.597,3.311c-2.89,0.759-3.262,2.523-4.86,5.167  c8.169-1.051,16.339-2.102,24.508-3.153c2.989-0.384,13.467-7.84,15.536-11.261C92.471,33.021,84.942,35,77.413,36.978z"/><path xmlns="http://www.w3.org/2000/svg" d="M83.017,53.158c-5.347-0.238-10.694-0.478-16.042-0.716c-2.903-0.129-5.806-0.259-8.709-0.388  c-1.788-0.08-1.79,0.869-2.746,2.446c4.909,1.047,9.818,2.094,14.729,3.141C74.098,58.462,82.415,53.803,83.017,53.158z"/><path xmlns="http://www.w3.org/2000/svg" d="M58.215,59.058c-0.022-0.491,0.213-2.677-0.139-3.062c-0.289-0.317-2.846-0.751-3.042-0.427  c-1.924,3.184-3.052,3.664-1.33,6.881c1.535,2.869,2.259,4.756,4.959,6.51C58.514,65.658,58.364,62.357,58.215,59.058z"/><path xmlns="http://www.w3.org/2000/svg" d="M65.745,66.447c-0.647-2.704-1.295-5.409-1.942-8.113c-0.455-1.903-2.724-1.612-4.512-1.994  C59.441,60.175,61.387,65.406,65.745,66.447z"/><path xmlns="http://www.w3.org/2000/svg" d="M70.871,63.814c-1.851-4.04-1.76-5.293-6.072-6.214C65.202,60.345,67.938,63.536,70.871,63.814z"/></g><g id="SvgjsG2040" featureKey="nameFeature-0" transform="matrix(2.079496197949587,0,0,2.079496197949587,-1.6635973549920928,83.97812388602951)" fill="#fff"><path d="M14.8 39.8 c-7.72 0.2 -14 -5.92 -14 -13.84 c0 -7.64 6.04 -13.96 14 -13.96 c2.92 0 5.6 0.84 7.8 2.28 l0 4.68 c-2.56 -3.84 -6.44 -7 -10.16 -6.36 c-5.32 0.96 -9.24 7.28 -7.88 15.16 c1.44 7.96 7.28 12.56 12.56 11.44 c3.16 -0.44 5.8 -2.76 7.2 -6.16 l0 3.28 c-2.48 2.24 -5.84 3.4 -9.52 3.48 z M38.870000000000005 39.4 c0.68 -0.16 1.28 -0.68 1.28 -1.52 l0 -9 l-6.52 -13.88 c-0.76 -1.28 -1.52 -2.28 -2.6 -2.4 l0 -0.6 l6.96 0 l0 0.6 c-1.08 0.12 -1.68 0.8 -0.64 3 l5.68 12.12 l5.56 -11.88 c1.16 -2.44 0.68 -3.08 -0.64 -3.24 l0 -0.6 l4.36 0 l0 0.6 c-1.4 0.28 -2.16 1.36 -2.96 3.04 l-6.16 13.24 l0 9 c0 0.84 0.6 1.36 1.28 1.52 l0 0.6 l-5.6 0 l0 -0.6 z M82.98 40 l-0.28 0 l-2.44 -1.88 c-2.12 1.08 -4.6 1.68 -7.24 1.68 c-7.8 0.04 -14 -5.92 -14 -13.84 c0 -7.64 6.04 -13.96 14 -13.96 c3.28 0 6.2 1.04 8.56 2.84 l0 4.16 c-2.48 -4.64 -6.8 -7.12 -10.92 -6.4 c-5.32 0.96 -9.24 7.28 -7.88 15.16 c1.44 7.96 7.28 12.56 12.56 11.44 c1.92 -0.28 3.56 -1.72 4.92 -3.32 l0.04 -4.32 c0 -1.6 -1.12 -2.24 -2.32 -2.4 l0 -0.68 l6.28 0 l0 0.6 c-0.56 0.24 -1.28 1 -1.28 1.8 l0 9.12 z M91.09 39.4 c0.52 -0.08 1.28 -0.72 1.28 -1.64 l0 -23.88 l-1.4 -1.88 l3.64 0 l17.32 23.48 l0 -21.24 c0 -0.92 -0.76 -1.56 -1.28 -1.64 l0 -0.6 l3.2 0 l0 0.6 c-0.52 0.08 -1.28 0.72 -1.28 1.64 l0 25.76 l-0.64 0 l-18.92 -25.2 l0 22.96 c0 0.92 0.76 1.56 1.28 1.64 l0 0.6 l-3.2 0 l0 -0.6 z M132.20000000000002 40 c-5.92 0 -10.36 -3.76 -10.36 -10.16 l0 -15.6 c0 -0.92 -0.76 -1.56 -1.28 -1.64 l0 -0.6 l5.64 0 l0 0.6 c-0.52 0.08 -1.28 0.72 -1.28 1.64 l0 15.2 c0 6.88 3.2 9.76 8.04 9.84 c2.56 0.04 8.36 -2.88 8.36 -9.84 l0 -15.2 c0 -0.92 -0.76 -1.56 -1.28 -1.64 l0 -0.6 l3.2 0 l0 0.6 c-0.52 0.08 -1.28 0.72 -1.28 1.64 l0 15.6 c0 6.4 -5.24 10.16 -9.76 10.16 z M160.91 40.52 c-5.8 -0.24 -8.52 -2.72 -10.96 -5.36 l1.24 -4.08 c2.84 5.8 6.2 8.4 9.76 8.72 c2.12 0.2 6.4 -0.92 6.4 -5 c0 -2.8 -2.76 -5.08 -7.4 -7.24 c-4.2 -1.96 -9.04 -3.92 -9.04 -8.96 c0 -3.76 3.92 -7.24 9.04 -7.04 c3.32 0.12 6.4 1.52 8.92 3.32 l-2.28 3.92 c-1.08 -3.68 -4.24 -6.56 -8.36 -6.28 c-3.64 0.24 -5.76 2.92 -5.76 5.2 c0 2.92 3.32 3.72 8 6.24 c4.08 2.2 8.64 4.56 8.64 9.68 c0 5.8 -5.52 7 -8.2 6.88 z"/></g><g id="SvgjsG2041" featureKey="nameFeature-1" transform="matrix(1.532600739453665,0,0,1.532600739453665,-1.2260808838833244,160.29573820253358)" fill="#fff"><path d="M11.76 40.52 c-5.8 -0.24 -8.52 -2.72 -10.96 -5.36 l1.24 -4.08 c2.84 5.8 6.2 8.4 9.76 8.72 c2.12 0.2 6.4 -0.92 6.4 -5 c0 -2.8 -2.76 -5.08 -7.4 -7.24 c-4.2 -1.96 -9.04 -3.92 -9.04 -8.96 c0 -3.76 3.92 -7.24 9.04 -7.04 c3.32 0.12 6.4 1.52 8.92 3.32 l-2.28 3.92 c-1.08 -3.68 -4.24 -6.56 -8.36 -6.28 c-3.64 0.24 -5.76 2.92 -5.76 5.2 c0 2.92 3.32 3.72 8 6.24 c4.08 2.2 8.64 4.56 8.64 9.68 c0 5.8 -5.52 7 -8.2 6.88 z M36.27 39.4 c0.52 -0.08 1.28 -0.72 1.28 -1.64 l0 -25.36 l-0.72 0 c-5.76 0 -8.56 1.48 -9.92 3.68 c-0.04 0 -0.2 -0.2 -0.24 -0.2 l0.84 -3.88 l23.16 0 l0.84 3.88 c-0.04 0 -0.2 0.2 -0.24 0.2 c-1.36 -2.2 -4.16 -3.68 -9.92 -3.68 l-0.76 0 l0 25.36 c0 0.92 0.76 1.56 1.28 1.64 l0 0.6 l-5.6 0 l0 -0.6 z M77.58 37.44 c0.44 0.8 1.12 1.8 2.16 1.96 l0 0.6 l-6.28 0 l0 -0.6 c1.12 -0.16 1.52 -0.6 0.88 -1.8 l-5.48 -10.08 l-6.32 0 l0 10.24 c0 0.92 0.76 1.56 1.28 1.64 l0 0.6 l-5.6 0 l0 -0.6 c0.52 -0.08 1.28 -0.72 1.28 -1.64 l0 -23.52 c0 -0.92 -0.76 -1.56 -1.28 -1.64 l0 -0.6 l9.64 0 c10.32 0 11.64 11.88 4.12 14.92 z M62.54 27 l5.76 0 c6.88 0 7.44 -14.52 -0.44 -14.52 l-5.32 0 l0 14.52 z M86.45 40 l0 -0.6 c0.96 -0.16 1.8 -1.56 2.36 -2.88 l8.28 -23.36 l-0.84 -0.84 l0 -0.32 l3.16 0 l9.96 25.52 c0.44 0.96 1.08 1.64 2.08 1.88 l0 0.6 l-6.64 0 l0 -0.6 c1.08 -0.12 1.88 -0.52 1.32 -2.12 l-2.84 -7.64 l-11.4 0 l-2.44 6.92 c-0.64 2.12 0.08 2.6 1.32 2.84 l0 0.6 l-4.32 0 z M92.13000000000001 29 l10.92 0 l-5.6 -14.96 z M127.76000000000002 39.4 c0.52 -0.08 1.28 -0.72 1.28 -1.64 l0 -25.36 l-0.72 0 c-5.76 0 -8.56 1.48 -9.92 3.68 c-0.04 0 -0.2 -0.2 -0.24 -0.2 l0.84 -3.88 l23.16 0 l0.84 3.88 c-0.04 0 -0.2 0.2 -0.24 0.2 c-1.36 -2.2 -4.16 -3.68 -9.92 -3.68 l-0.76 0 l0 25.36 c0 0.92 0.76 1.56 1.28 1.64 l0 0.6 l-5.6 0 l0 -0.6 z M149.71000000000004 39.4 c0.72 -0.16 1.28 -0.72 1.28 -1.48 l0 -23.84 c0 -0.76 -0.56 -1.32 -1.28 -1.48 l0 -0.6 l17.92 0 l0.84 3.88 c-0.04 0 -0.2 0.2 -0.24 0.2 c-1.36 -2.2 -4.16 -3.68 -9.92 -3.68 l-4.28 0 l0 13.76 l6.36 0 c1.08 0 1.84 -1.32 1.92 -1.84 l0.4 0 l0 4.28 l-0.4 0 c-0.08 -0.52 -0.84 -1.84 -1.92 -1.84 l-6.36 0 l0 12.84 l4.24 0 c6.56 0 9.36 -1.48 10.72 -3.68 c0.04 0 0.2 0.2 0.24 0.2 l-0.84 3.88 l-18.68 0 l0 -0.6 z M199.9 40 l-0.28 0 l-2.44 -1.88 c-2.12 1.08 -4.6 1.68 -7.24 1.68 c-7.8 0.04 -14 -5.92 -14 -13.84 c0 -7.64 6.04 -13.96 14 -13.96 c3.28 0 6.2 1.04 8.56 2.84 l0 4.16 c-2.48 -4.64 -6.8 -7.12 -10.92 -6.4 c-5.32 0.96 -9.24 7.28 -7.88 15.16 c1.44 7.96 7.28 12.56 12.56 11.44 c1.92 -0.28 3.56 -1.72 4.92 -3.32 l0.04 -4.32 c0 -1.6 -1.12 -2.24 -2.32 -2.4 l0 -0.68 l6.28 0 l0 0.6 c-0.56 0.24 -1.28 1 -1.28 1.8 l0 9.12 z M215.73000000000002 39.4 c0.68 -0.16 1.28 -0.68 1.28 -1.52 l0 -9 l-6.52 -13.88 c-0.76 -1.28 -1.52 -2.28 -2.6 -2.4 l0 -0.6 l6.96 0 l0 0.6 c-1.08 0.12 -1.68 0.8 -0.64 3 l5.68 12.12 l5.56 -11.88 c1.16 -2.44 0.68 -3.08 -0.64 -3.24 l0 -0.6 l4.36 0 l0 0.6 c-1.4 0.28 -2.16 1.36 -2.96 3.04 l-6.16 13.24 l0 9 c0 0.84 0.6 1.36 1.28 1.52 l0 0.6 l-5.6 0 l0 -0.6 z"/></g>
			</g>
		</svg>
	